<svg width="20" height="20" viewBox="0 0 20 20" fill="none" xmlns="http://www.w3.org/2000/svg">
<path d="M14.0312 2.8125H14.0322C14.612 2.81271 15.1861 2.92807 15.7207 3.15234C16.2555 3.37666 16.74 3.70554 17.1465 4.11914C17.9754 4.96296 18.4395 6.09841 18.4395 7.28125C18.4395 8.46409 17.9754 9.59954 17.1465 10.4434L10 17.6797L2.85449 10.4434C2.02574 9.59956 1.56152 8.46398 1.56152 7.28125C1.56152 6.09852 2.02574 4.96294 2.85449 4.11914C3.26107 3.70576 3.7465 3.37743 4.28125 3.15332C4.81591 2.9293 5.39003 2.81348 5.96973 2.81348C6.54945 2.81351 7.12353 2.92925 7.6582 3.15332C8.19287 3.37741 8.67746 3.70584 9.08398 4.11914L9.08496 4.12012L9.77832 4.82031L10.001 5.04395L10.2227 4.82031L10.916 4.12012L10.918 4.11914C11.324 3.70511 11.808 3.37568 12.3428 3.15137C12.8774 2.92711 13.4515 2.81207 14.0312 2.8125ZM14.0322 3.4375C13.5331 3.43681 13.0387 3.53682 12.5791 3.73145C12.1203 3.9258 11.7049 4.21021 11.3584 4.56836L10.001 5.95215L8.63672 4.55664L8.63574 4.55566C8.28793 4.20158 7.87273 3.92054 7.41504 3.72852C6.95732 3.53652 6.46608 3.43753 5.96973 3.4375C5.47319 3.4375 4.98131 3.53642 4.52344 3.72852C4.06571 3.92058 3.65055 4.20151 3.30273 4.55566C2.58873 5.2806 2.18848 6.25787 2.18848 7.27539C2.18858 8.29272 2.58888 9.26931 3.30273 9.99414H3.30371L9.77832 16.5508L10.001 16.7764L10.2227 16.5508L16.6982 9.99414C17.4122 9.26928 17.8124 8.29283 17.8125 7.27539C17.8125 6.2578 17.4123 5.28062 16.6982 4.55566C16.3507 4.20141 15.9362 3.91953 15.4785 3.72754C15.0207 3.53551 14.5287 3.43715 14.0322 3.4375Z" fill="#BDBDBD" stroke="#252B42" stroke-width="0.625"/>
</svg>
